<svg width="1385" height="1385" xmlns="http://www.w3.org/2000/svg" xmlns:xlink="http://www.w3.org/1999/xlink" xml:space="preserve" overflow="hidden"><defs><clipPath id="clip0"><rect x="207" y="431" width="1385" height="1385"/></clipPath><clipPath id="clip1"><rect x="330" y="551" width="1139" height="1138"/></clipPath><clipPath id="clip2"><rect x="330" y="551" width="1139" height="1138"/></clipPath><clipPath id="clip3"><rect x="330" y="551" width="1139" height="1138"/></clipPath><clipPath id="clip4"><rect x="510" y="716" width="780" height="779"/></clipPath><clipPath id="clip5"><rect x="510" y="716" width="780" height="779"/></clipPath><clipPath id="clip6"><rect x="510" y="716" width="780" height="779"/></clipPath></defs><g clip-path="url(#clip0)" transform="translate(-207 -431)"><path d="M229.339 676.729C229.339 553.354 329.354 453.339 452.729 453.339L1346.27 453.339C1469.65 453.339 1569.66 553.354 1569.66 676.729L1569.66 1570.27C1569.66 1693.65 1469.65 1793.66 1346.27 1793.66L452.729 1793.66C329.354 1793.66 229.339 1693.65 229.339 1570.27Z" stroke="#FFFFFF" stroke-width="43.3172" stroke-miterlimit="8" fill="#A6A6A6" fill-rule="evenodd"/><g clip-path="url(#clip1)"><g clip-path="url(#clip2)"><g clip-path="url(#clip3)"><path d="M897.617 672.86C649.822 672.86 448.942 873.736 448.942 1121.53 448.942 1369.33 649.822 1570.21 897.617 1570.21 1145.41 1570.21 1346.29 1369.33 1346.29 1121.53 1346.29 1121.52 1346.29 1121.5 1346.29 1121.49 1346.38 873.801 1145.66 672.945 897.971 672.86 897.854 672.86 897.733 672.86 897.617 672.86ZM1117.58 1161.48 937.558 1161.48 937.558 1341.45 857.675 1341.45 857.675 1161.43 677.656 1161.43 677.656 1081.54 857.675 1081.54 857.675 901.525 937.558 901.525 937.558 1081.54 1117.58 1081.54Z" fill="#A6A6A6"/></g></g></g><path d="M445.5 1106C445.5 854.987 648.987 651.5 900 651.5 1151.01 651.5 1354.5 854.987 1354.5 1106 1354.5 1357.01 1151.01 1560.5 900 1560.5 648.987 1560.5 445.5 1357.01 445.5 1106Z" stroke="#FFFFFF" stroke-width="4.58333" stroke-miterlimit="8" fill="#FFFFFF" fill-rule="evenodd"/><g clip-path="url(#clip4)"><g clip-path="url(#clip5)"><g clip-path="url(#clip6)"><path d="M1012.29 1222.35C1075.59 1161.49 1078.83 1060.87 1018.78 995.953 1082.89 1029.22 1135.63 1080.34 1166.47 1114.43 1134.01 1146.07 1078.83 1193.14 1012.29 1222.35ZM693.39 1055.19C720.168 1032.47 748.569 1012.99 779.404 996.765 720.168 1061.68 723.414 1161.49 786.707 1222.35 720.168 1193.14 664.177 1146.07 632.53 1114.43 651.194 1093.33 671.48 1073.85 693.39 1055.19L693.39 1055.19ZM899.5 1235.33C828.092 1235.33 769.667 1176.91 769.667 1105.5 769.667 1034.09 828.092 975.667 899.5 975.667 970.908 975.667 1029.33 1034.09 1029.33 1105.5 1029.33 1176.91 970.908 1235.33 899.5 1235.33ZM1215.16 1091.71C1168.09 1036.53 1044.75 910.75 899.5 910.75 754.249 910.75 630.907 1036.53 583.843 1091.71 571.671 1106.31 572.482 1126.6 585.466 1140.39 633.342 1190.7 755.872 1300.25 899.5 1300.25 1043.13 1300.25 1165.66 1190.7 1214.35 1140.39 1226.52 1127.41 1227.33 1106.31 1215.16 1091.71Z" fill="#A6A6A6"/><path d="M980.646 1105.5C980.646 1150.32 944.316 1186.65 899.5 1186.65 854.685 1186.65 818.354 1150.32 818.354 1105.5 818.354 1060.68 854.685 1024.35 899.5 1024.35 944.316 1024.35 980.646 1060.68 980.646 1105.5Z" fill="#A6A6A6"/></g></g></g><path d="M1175.03 847.851 623.821 1399.06" stroke="#000000" stroke-width="45.8333" stroke-linecap="round" stroke-miterlimit="8" fill="none" fill-rule="evenodd"/></g></svg>