<svg width="1385" height="1385" xmlns="http://www.w3.org/2000/svg" xmlns:xlink="http://www.w3.org/1999/xlink" xml:space="preserve" overflow="hidden"><defs><clipPath id="clip0"><rect x="1879" y="431" width="1385" height="1385"/></clipPath><clipPath id="clip1"><rect x="2002" y="551" width="1139" height="1138"/></clipPath><clipPath id="clip2"><rect x="2002" y="551" width="1139" height="1138"/></clipPath><clipPath id="clip3"><rect x="2002" y="551" width="1139" height="1138"/></clipPath><clipPath id="clip4"><rect x="2182" y="716" width="780" height="779"/></clipPath><clipPath id="clip5"><rect x="2182" y="716" width="780" height="779"/></clipPath><clipPath id="clip6"><rect x="2182" y="716" width="780" height="779"/></clipPath></defs><g clip-path="url(#clip0)" transform="translate(-1879 -431)"><path d="M1901.34 676.729C1901.34 553.354 2001.35 453.339 2124.73 453.339L3018.27 453.339C3141.65 453.339 3241.66 553.354 3241.66 676.729L3241.66 1570.27C3241.66 1693.65 3141.65 1793.66 3018.27 1793.66L2124.73 1793.66C2001.35 1793.66 1901.34 1693.65 1901.34 1570.27Z" stroke="#FFFFFF" stroke-width="43.3172" stroke-miterlimit="8" fill="#A6A6A6" fill-rule="evenodd"/><g clip-path="url(#clip1)"><g clip-path="url(#clip2)"><g clip-path="url(#clip3)"><path d="M2569.62 672.86C2321.82 672.86 2120.94 873.736 2120.94 1121.53 2120.94 1369.33 2321.82 1570.21 2569.62 1570.21 2817.41 1570.21 3018.29 1369.33 3018.29 1121.53 3018.29 1121.52 3018.29 1121.5 3018.29 1121.49 3018.38 873.801 2817.66 672.945 2569.97 672.86 2569.85 672.86 2569.73 672.86 2569.62 672.86ZM2789.58 1161.48 2609.56 1161.48 2609.56 1341.45 2529.67 1341.45 2529.67 1161.43 2349.66 1161.43 2349.66 1081.54 2529.67 1081.54 2529.67 901.525 2609.56 901.525 2609.56 1081.54 2789.58 1081.54Z" fill="#A6A6A6"/></g></g></g><path d="M2117.5 1106C2117.5 854.987 2320.99 651.5 2572 651.5 2823.01 651.5 3026.5 854.987 3026.5 1106 3026.5 1357.01 2823.01 1560.5 2572 1560.5 2320.99 1560.5 2117.5 1357.01 2117.5 1106Z" stroke="#FFFFFF" stroke-width="4.58333" stroke-miterlimit="8" fill="#FFFFFF" fill-rule="evenodd"/><g clip-path="url(#clip4)"><g clip-path="url(#clip5)"><g clip-path="url(#clip6)"><path d="M2684.29 1222.35C2747.59 1161.49 2750.83 1060.87 2690.78 995.953 2754.89 1029.22 2807.63 1080.34 2838.47 1114.43 2806.01 1146.07 2750.83 1193.14 2684.29 1222.35ZM2365.39 1055.19C2392.17 1032.47 2420.57 1012.99 2451.4 996.765 2392.17 1061.68 2395.41 1161.49 2458.71 1222.35 2392.17 1193.14 2336.18 1146.07 2304.53 1114.43 2323.19 1093.33 2343.48 1073.85 2365.39 1055.19L2365.39 1055.19ZM2571.5 1235.33C2500.09 1235.33 2441.67 1176.91 2441.67 1105.5 2441.67 1034.09 2500.09 975.667 2571.5 975.667 2642.91 975.667 2701.33 1034.09 2701.33 1105.5 2701.33 1176.91 2642.91 1235.33 2571.5 1235.33ZM2887.16 1091.71C2840.09 1036.53 2716.75 910.75 2571.5 910.75 2426.25 910.75 2302.91 1036.53 2255.84 1091.71 2243.67 1106.31 2244.48 1126.6 2257.47 1140.39 2305.34 1190.7 2427.87 1300.25 2571.5 1300.25 2715.13 1300.25 2837.66 1190.7 2886.35 1140.39 2898.52 1127.41 2899.33 1106.31 2887.16 1091.71Z" fill="#A6A6A6"/><path d="M2652.65 1105.5C2652.65 1150.32 2616.32 1186.65 2571.5 1186.65 2526.68 1186.65 2490.35 1150.32 2490.35 1105.5 2490.35 1060.68 2526.68 1024.35 2571.5 1024.35 2616.32 1024.35 2652.65 1060.68 2652.65 1105.5Z" fill="#A6A6A6"/></g></g></g></g></svg>